<svg xmlns="http://www.w3.org/2000/svg" viewBox="0 0 96 96" role="img" aria-label="Juventus badge">
  <defs>
    <linearGradient id="juvWhite" x1="24" y1="10" x2="73" y2="85" gradientUnits="userSpaceOnUse">
      <stop stop-color="#ffffff"/>
      <stop offset=".55" stop-color="#f1f1f1"/>
      <stop offset="1" stop-color="#cfd4dc"/>
    </linearGradient>
    <filter id="juvShadow" x="-20%" y="-20%" width="140%" height="140%">
      <feDropShadow dx="0" dy="5" stdDeviation="5" flood-color="#000" flood-opacity=".5"/>
    </filter>
  </defs>
  <rect width="96" height="96" rx="22" fill="#05070c"/>
  <path d="M31 12h34v42c0 17.2-7.8 27.8-17 33-9.2-5.2-17-15.8-17-33V12Z" fill="url(#juvWhite)" stroke="#111827" stroke-width="3" filter="url(#juvShadow)"/>
  <path d="M40 20h9v34c0 9.5-4.6 16.6-10.8 21.2 2.4-4.4 3.8-9.8 3.8-16.2V29h-2V20Z" fill="#05070c"/>
  <path d="M52 20h9v34c0 13.2-6.1 21.6-13 26.2v-9.8c3.8-3.8 4-8.7 4-15.4V20Z" fill="#05070c"/>
  <path d="M38 20h25v8H38z" fill="#05070c"/>
</svg>
